<?xml version="1.0" encoding="UTF-8" standalone="no"?>
<!-- Generator: Adobe Illustrator 15.0.2, SVG Export Plug-In  -->

<svg
   xmlns:dc="http://purl.org/dc/elements/1.1/"
   xmlns:cc="http://creativecommons.org/ns#"
   xmlns:rdf="http://www.w3.org/1999/02/22-rdf-syntax-ns#"
   xmlns:svg="http://www.w3.org/2000/svg"
   xmlns="http://www.w3.org/2000/svg"
   xmlns:sodipodi="http://sodipodi.sourceforge.net/DTD/sodipodi-0.dtd"
   xmlns:inkscape="http://www.inkscape.org/namespaces/inkscape"
   version="1.1"
   x="0px"
   y="0px"
   width="41.954102"
   height="41.953125"
   overflow="visible"
   enable-background="new -95.2021484 -45.6098633 482 283"
   xml:space="preserve"
   id="svg34"
   sodipodi:docname="disc-iotlab.svg"
   style="overflow:visible"
   inkscape:version="0.92.1 r15371"><metadata
     id="metadata38"><rdf:RDF><cc:Work
         rdf:about=""><dc:format>image/svg+xml</dc:format><dc:type
           rdf:resource="http://purl.org/dc/dcmitype/StillImage" /><dc:title></dc:title></cc:Work></rdf:RDF></metadata><sodipodi:namedview
     pagecolor="#ffffff"
     bordercolor="#666666"
     borderopacity="1"
     objecttolerance="10"
     gridtolerance="10"
     guidetolerance="10"
     inkscape:pageopacity="0"
     inkscape:pageshadow="2"
     inkscape:window-width="1920"
     inkscape:window-height="1017"
     id="namedview36"
     showgrid="false"
     fit-margin-top="0"
     fit-margin-left="0"
     fit-margin-right="0"
     fit-margin-bottom="0"
     inkscape:zoom="1.8350515"
     inkscape:cx="104.62921"
     inkscape:cy="8.953125"
     inkscape:window-x="1592"
     inkscape:window-y="-8"
     inkscape:window-maximized="1"
     inkscape:current-layer="svg34" /><defs
     id="defs2" /><path
     d="M 41.954102,20.976562 C 41.954102,9.3916016 32.561523,0 20.976562,0 9.3916016,0 0,9.3916016 0,20.976562 c 0,11.584961 9.3916016,20.976563 20.976562,20.976563 11.584961,0 20.97754,-9.391602 20.97754,-20.976563"
     id="path22"
     inkscape:connector-curvature="0"
     style="fill:#20539d" /><path
     d="m 24.075195,20.470703 c 0.285156,1.75293 -0.90039,3.404297 -2.655273,3.689453 -1.75,0.28711 -3.400391,-0.902344 -3.688477,-2.654297 -0.285156,-1.751953 0.904297,-3.40332 2.65625,-3.689453 1.751953,-0.286133 3.400391,0.902344 3.6875,2.654297"
     id="path24"
     inkscape:connector-curvature="0"
     style="fill:#ffffff" /><path
     d="m 16.283203,21.744141 3.009766,3.682617 4.693359,-0.766602 1.68457,-4.449219 -3.009765,-3.682617 -4.695313,0.766602 z m 2.634766,4.671875 -3.679688,-4.501954 2.057617,-5.438476 5.739258,-0.936524 3.680664,4.5 -2.060546,5.44043 z"
     id="path26"
     inkscape:connector-curvature="0"
     style="fill:#ffffff" /><path
     d="M 40.790039,22.046875 38.50293,21.916016 c 0.01855,-0.308594 0.02539,-0.623047 0.02539,-0.938477 0,-9.678711 -7.874023,-17.5537109 -17.552734,-17.5537109 -3.745117,0 -7.320313,1.1640625 -10.336914,3.3642578 L 9.2880859,4.9384766 C 12.700195,2.4492188 16.742187,1.1328125 20.975586,1.1328125 c 10.941406,0 19.84375,8.9023435 19.84375,19.8447265 0,0.360352 -0.0088,0.716797 -0.0293,1.069336 m -19.81445,18.773437 c -10.94043,0 -19.8408204,-8.902343 -19.8408204,-19.842773 h 2.2910156 c 0,9.677734 7.8720698,17.551758 17.5498048,17.551758 3.625,0 7.106445,-1.095703 10.066406,-3.168945 l 1.314453,1.875 c -3.346679,2.345703 -7.282226,3.58496 -11.380859,3.58496"
     id="path28"
     inkscape:connector-curvature="0"
     style="fill:#ffffff" /><path
     d="m 33.321289,21.773437 -1.373047,-0.08398 c 0.01367,-0.232422 0.02246,-0.464844 0.02246,-0.700195 0,-6.102539 -4.963867,-11.067383 -11.06543,-11.067383 -2.361328,0 -4.615234,0.734375 -6.519531,2.12207 l -0.808594,-1.110351 c 2.139649,-1.5605472 4.673828,-2.3857425 7.328125,-2.3857425 6.859375,0 12.44043,5.5810545 12.44043,12.4414065 0,0.262695 -0.0088,0.524414 -0.02441,0.784179 m -12.416016,11.65625 c -6.861328,0 -12.443359,-5.580078 -12.443359,-12.440429 h 1.3740234 c 0,6.101562 4.9648436,11.067383 11.0693356,11.067383 2.285156,0 4.478516,-0.692383 6.345703,-2.001954 l 0.789063,1.125 c -2.098633,1.472657 -4.567383,2.25 -7.134766,2.25"
     id="path30"
     inkscape:connector-curvature="0"
     style="fill:#ffffff" /><path
     d="m 37.118164,21.859375 h -1.833008 c 0,-8.416016 -6.451172,-15.2636719 -14.379882,-15.2636719 -3.060547,0 -5.982422,0.9482422 -8.451172,2.7441406 L 11.375977,7.8574218 c 2.783203,-2.0244141 6.079101,-3.09375 9.529297,-3.09375 8.940429,1e-7 16.21289,7.6679692 16.21289,17.0957032 M 20.905273,37.191406 c -8.941406,0 -16.2158199,-7.274414 -16.2158199,-16.214844 h 1.8320312 c 0,7.930665 6.4531247,14.38086 14.3837887,14.38086 2.979493,0 5.837891,-0.90332 8.266602,-2.611328 l 1.053711,1.499023 c -2.737305,1.924805 -5.959961,2.944336 -9.320313,2.946289"
     id="path32"
     inkscape:connector-curvature="0"
     style="fill:#ffffff" /></svg>